<svg width="155" height="28" viewBox="0 0 155 28" fill="none" xmlns="http://www.w3.org/2000/svg">
<g clip-path="url(#clip0_4176_5872)">
<path d="M40.4559 7.82632C39.4153 7.24277 38.2172 6.94971 36.859 6.94971C35.6906 6.94971 34.6501 7.20404 33.7399 7.71013C33.1873 8.01739 32.7071 8.42407 32.2965 8.9237V7.10334H29.229V23.7822H32.4514V19.1732C32.8452 19.6199 33.2945 19.9905 33.8044 20.2758C34.7237 20.7909 35.7423 21.0491 36.859 21.0491C38.2159 21.0491 39.4153 20.7573 40.4559 20.1725C41.4951 19.589 42.3201 18.7679 42.9308 17.7105C43.5401 16.6531 43.8461 15.4125 43.8461 13.9859C43.8461 12.5593 43.5414 11.3224 42.9308 10.2741C42.3201 9.2258 41.4951 8.40987 40.4559 7.82503V7.82632ZM40.0298 16.2826C39.6683 16.9359 39.1829 17.4342 38.5735 17.7776C37.9629 18.1223 37.2722 18.2928 36.4988 18.2928C35.7255 18.2928 35.0296 18.121 34.4112 17.7776C33.7928 17.4342 33.3022 16.9359 32.942 16.2826C32.5805 15.6293 32.4011 14.8651 32.4011 13.9884C32.4011 13.1118 32.5818 12.3256 32.942 11.6814C33.3035 11.0371 33.7928 10.5427 34.4112 10.1992C35.0296 9.85583 35.7255 9.68412 36.4988 9.68412C37.2722 9.68412 37.9642 9.85583 38.5735 10.1992C39.1829 10.5427 39.6696 11.0371 40.0298 11.6814C40.3913 12.3256 40.5708 13.095 40.5708 13.9884C40.5708 14.8818 40.39 15.6293 40.0298 16.2826Z" fill="#F4F4F4"/>
<path d="M48.5143 9.12123V7.10463H45.4468V20.871H48.6692V14.1937C48.6692 12.7852 49.0307 11.7227 49.7524 11.01C50.4741 10.2974 51.4449 9.93975 52.665 9.93975C52.785 9.93975 52.9051 9.94362 53.0265 9.95266C53.1465 9.96169 53.2756 9.98235 53.4125 10.0172V6.94971C52.0892 6.94971 50.9853 7.19113 50.0997 7.6714C49.44 8.0303 48.9119 8.51315 48.5143 9.12123Z" fill="#F4F4F4"/>
<path d="M64.9029 7.85214C63.7939 7.25052 62.5274 6.94971 61.1008 6.94971C59.6742 6.94971 58.4361 7.25052 57.3374 7.85214C56.2374 8.45376 55.3686 9.28261 54.7334 10.34C54.0969 11.3973 53.7793 12.6135 53.7793 13.9871C53.7793 15.3608 54.0969 16.5563 54.7334 17.6227C55.3686 18.6891 56.2374 19.5257 57.3374 20.1364C58.4374 20.747 59.6922 21.0517 61.1008 21.0517C62.5093 21.0517 63.7952 20.747 64.9029 20.1364C66.0119 19.527 66.8794 18.6891 67.5069 17.6227C68.1343 16.5576 68.4481 15.3453 68.4481 13.9871C68.4481 12.629 68.1343 11.3754 67.5069 10.3258C66.8794 9.27745 66.0119 8.45247 64.9029 7.85085V7.85214ZM64.6705 16.2826C64.318 16.9359 63.8326 17.4342 63.2142 17.7776C62.5958 18.1223 61.8909 18.2928 61.1008 18.2928C60.3107 18.2928 59.6354 18.121 59.0261 17.7776C58.4154 17.4342 57.93 16.9359 57.5698 16.2826C57.2083 15.6293 57.0288 14.8651 57.0288 13.9884C57.0288 13.1118 57.2096 12.3256 57.5698 11.6814C57.9313 11.0371 58.4154 10.5427 59.0261 10.1992C59.6354 9.85583 60.3365 9.68412 61.1266 9.68412C61.9167 9.68412 62.5958 9.85583 63.2155 10.1992C63.8339 10.5427 64.3193 11.0371 64.6718 11.6814C65.0242 12.3256 65.1998 13.095 65.1998 13.9884C65.1998 14.8818 65.0229 15.6293 64.6718 16.2826H64.6705Z" fill="#F4F4F4"/>
<path d="M78.983 17.8294C78.3904 18.1393 77.7501 18.2929 77.062 18.2929C76.2718 18.2929 75.5579 18.1212 74.9227 17.7778C74.2862 17.4344 73.7879 16.9399 73.4277 16.2957C73.0662 15.6515 72.8867 14.882 72.8867 13.9886C72.8867 13.0952 73.0675 12.3258 73.4277 11.6815C73.7892 11.0373 74.2875 10.5428 74.9227 10.1994C75.5579 9.856 76.2718 9.6843 77.062 9.6843C77.7488 9.6843 78.3891 9.83922 78.983 10.1478C79.5756 10.4576 80.0791 10.9379 80.491 11.5912L82.9659 10.1478C82.4327 9.09946 81.6555 8.30418 80.633 7.76323C79.6105 7.22229 78.4292 6.95117 77.0878 6.95117C75.6444 6.95117 74.3585 7.25198 73.234 7.85361C72.1083 8.45523 71.2278 9.28407 70.5913 10.3414C69.9548 11.3988 69.6372 12.6149 69.6372 13.9886C69.6372 15.3623 69.9548 16.5578 70.5913 17.6242C71.2265 18.6906 72.1083 19.5272 73.234 20.1378C74.3598 20.7485 75.6444 21.0532 77.0878 21.0532C78.4279 21.0532 79.6092 20.7743 80.633 20.2153C81.6555 19.6576 82.4327 18.8623 82.9659 17.8307L80.491 16.3874C80.0778 17.0406 79.5756 17.5222 78.983 17.8307V17.8294Z" fill="#F4F4F4"/>
<path d="M94.007 14.0399C93.4996 13.7817 92.9367 13.5803 92.3183 13.4344C91.6999 13.2885 91.0802 13.1684 90.4618 13.0729C89.8434 12.9787 89.2805 12.8625 88.7731 12.7243C88.2658 12.5875 87.8539 12.3938 87.5363 12.1446C87.2174 11.8955 87.0586 11.5391 87.0586 11.0744C87.0586 10.5244 87.3246 10.0738 87.8578 9.72136C88.3897 9.36891 89.1979 9.19333 90.2811 9.19333C90.9511 9.19333 91.6212 9.27079 92.2925 9.42572C92.9625 9.58064 93.6068 9.86338 94.2265 10.2765L95.2838 8.31672C94.699 7.92166 93.9476 7.61698 93.0284 7.40137C92.1092 7.18706 91.2016 7.07861 90.3082 7.07861C89.1385 7.07861 88.1302 7.24645 87.2794 7.58083C86.4286 7.9165 85.7715 8.39289 85.3067 9.01129C84.8432 9.6297 84.6108 10.3514 84.6108 11.1764C84.6108 12.0013 84.7658 12.5991 85.0743 13.0716C85.3842 13.5441 85.796 13.9134 86.3124 14.1806C86.8275 14.4478 87.3956 14.6531 88.014 14.799C88.6324 14.9449 89.2521 15.0663 89.8705 15.1605C90.4889 15.2547 91.0518 15.3632 91.5592 15.4833C92.0653 15.6033 92.4745 15.7841 92.7831 16.0242C93.0929 16.2656 93.2466 16.6 93.2466 17.0299C93.2466 17.6148 92.9922 18.0692 92.4862 18.3958C91.9788 18.7225 91.1499 18.8851 89.9983 18.8851C89.1049 18.8851 88.2283 18.7483 87.3685 18.472C86.5087 18.197 85.787 17.8626 85.2034 17.4663L84.1719 19.4261C84.7554 19.8728 85.5597 20.2511 86.5822 20.5609C87.6047 20.8708 88.6828 21.0244 89.8176 21.0244C91.0376 21.0244 92.0859 20.8566 92.9625 20.5222C93.8392 20.1865 94.5182 19.7192 94.9998 19.1175C95.4801 18.5159 95.7215 17.8033 95.7215 16.9783C95.7215 16.2049 95.5627 15.5865 95.2451 15.1218C94.9275 14.6583 94.5144 14.2968 94.0083 14.0386L94.007 14.0399Z" fill="#F4F4F4"/>
<path d="M101.943 18.9382C101.255 18.9382 100.727 18.7406 100.357 18.3456C99.9869 17.9505 99.8035 17.3838 99.8035 16.644V9.24507H103.722V7.20781H99.8035V4.21777H97.3286V16.7473C97.3286 18.1222 97.7069 19.1796 98.4634 19.9181C99.22 20.6578 100.285 21.0271 101.66 21.0271C102.227 21.0271 102.773 20.9496 103.297 20.7947C103.821 20.6398 104.272 20.3996 104.65 20.073L103.877 18.2939C103.362 18.7239 102.716 18.9382 101.943 18.9382Z" fill="#F4F4F4"/>
<path d="M116.008 14.2726C116.008 15.2357 115.836 16.0555 115.492 16.7346C115.149 17.4137 114.658 17.9288 114.023 18.2812C113.387 18.6337 112.639 18.8093 111.781 18.8093C110.611 18.8093 109.706 18.4736 109.061 17.8035C108.416 17.1335 108.094 16.1278 108.094 14.7877V7.20801H105.619V15.0704C105.619 16.4105 105.864 17.5234 106.353 18.409C106.843 19.2947 107.531 19.9518 108.416 20.3817C109.301 20.8117 110.328 21.026 111.497 21.026C112.665 21.026 113.619 20.7768 114.513 20.2785C115.177 19.9079 115.718 19.4212 116.137 18.8222V20.871H118.483V7.20801H116.008V14.2713V14.2726Z" fill="#F4F4F4"/>
<path d="M131.811 9.28509C131.348 8.68734 130.799 8.20708 130.161 7.85333C129.233 7.33821 128.194 7.08 127.042 7.08C125.719 7.08 124.537 7.37307 123.497 7.95662C122.456 8.54145 121.636 9.35352 121.035 10.3928C120.433 11.4334 120.132 12.6482 120.132 14.0413C120.132 15.4343 120.433 16.6543 121.035 17.7026C121.636 18.751 122.456 19.5682 123.497 20.1517C124.536 20.7366 125.717 21.0284 127.042 21.0284C128.228 21.0284 129.284 20.7663 130.213 20.2421C130.88 19.8651 131.447 19.3539 131.914 18.7148V20.8734H134.286V4.21777H131.811V9.28509ZM131.231 16.5794C130.827 17.3102 130.277 17.8731 129.581 18.2681C128.886 18.6632 128.107 18.8607 127.249 18.8607C126.39 18.8607 125.59 18.6632 124.903 18.2681C124.215 17.8731 123.666 17.3102 123.253 16.5794C122.841 15.8487 122.634 15.0031 122.634 14.04C122.634 13.0769 122.841 12.2145 123.253 11.5005C123.666 10.7879 124.215 10.2327 124.903 9.83766C125.59 9.4426 126.372 9.24507 127.249 9.24507C128.125 9.24507 128.886 9.4426 129.581 9.83766C130.277 10.2327 130.827 10.7879 131.231 11.5005C131.635 12.2145 131.837 13.0601 131.837 14.04C131.837 15.0199 131.634 15.8487 131.231 16.5794Z" fill="#F4F4F4"/>
<path d="M138.974 7.20801H136.499V20.871H138.974V7.20801Z" fill="#F4F4F4"/>
<path d="M154.009 10.4172C153.399 9.37795 152.557 8.56072 151.483 7.96814C150.408 7.37555 149.192 7.07861 147.835 7.07861C146.479 7.07861 145.24 7.37555 144.174 7.96814C143.108 8.56072 142.266 9.38182 141.648 10.4301C141.029 11.4785 140.719 12.6817 140.719 14.0399C140.719 15.3981 141.029 16.5794 141.648 17.6367C142.266 18.6941 143.108 19.5229 144.174 20.1245C145.239 20.7262 146.459 21.027 147.835 21.027C149.212 21.027 150.408 20.7262 151.483 20.1245C152.557 19.5229 153.399 18.6979 154.009 17.6496C154.619 16.6013 154.925 15.3981 154.925 14.0399C154.925 12.6817 154.62 11.4578 154.009 10.4172ZM151.831 16.5794C151.436 17.3101 150.89 17.873 150.194 18.268C149.498 18.6631 148.712 18.8606 147.835 18.8606C146.959 18.8606 146.176 18.6631 145.49 18.268C144.802 17.873 144.253 17.3101 143.84 16.5794C143.428 15.8486 143.221 15.003 143.221 14.0399C143.221 13.0768 143.428 12.2144 143.84 11.5004C144.253 10.7878 144.802 10.2326 145.49 9.83756C146.176 9.4425 146.959 9.24497 147.835 9.24497C148.712 9.24497 149.498 9.4425 150.194 9.83756C150.89 10.2326 151.436 10.7878 151.831 11.5004C152.226 12.2144 152.424 13.06 152.424 14.0399C152.424 15.0198 152.226 15.8486 151.831 16.5794Z" fill="#F4F4F4"/>
<path d="M0 28V0H11.8414C16.2038 0 19.5166 2.91387 19.7232 6.93028V6.95094C19.7529 8.35172 19.7554 9.44264 19.7296 9.79638L19.727 9.83899C19.7167 10.1759 19.6819 10.5297 19.6225 10.8886L19.6173 10.9286C18.8336 17.3063 15.7481 21.3434 13.2977 23.6079C10.3231 26.3578 6.59849 27.9987 3.33475 27.9987H0V28Z" fill="#0277EE"/>
<path d="M18.7226 9.58458C18.7226 13.3105 15.7029 16.329 11.9782 16.329H7.55256V22.0896C7.55256 24.7917 5.36296 26.9813 2.66082 26.9813H1.02637V1.01855H11.8491C15.7932 1.01855 18.6658 3.6187 18.7213 7.22069C18.7239 7.25555 18.7239 9.58458 18.7239 9.58458H18.7226Z" fill="#0277EE"/>
<path d="M18.7226 7.32914V9.58458C18.7226 13.3105 15.7029 16.329 11.9782 16.329H7.55256V22.0896C7.55256 24.7917 5.36296 26.9813 2.66082 26.9813H1.02637V1.01855H11.8491C15.7932 1.01855 18.6658 3.6187 18.7213 7.22069C18.7239 7.25555 18.7239 7.29299 18.7239 7.32785L18.7226 7.32914Z" fill="#F4F4F4"/>
<path d="M8.39289 5.27368H4.43457V4.42676H8.03656L8.10111 4.58168L8.39289 5.27368Z" fill="#0277EE"/>
<path d="M15.3143 4.42676V5.27368H14.0853L12.0674 4.42676H15.3143Z" fill="#0277EE"/>
<path d="M9.4709 7.84138H4.43457V6.99316H9.11458L9.4709 7.84138Z" fill="#01013D"/>
<path d="M10.5373 10.3811H4.43457V9.53418H10.181L10.5373 10.3811Z" fill="#01013D"/>
<path d="M15.3143 9.53418V10.3811H14.1304L14.3511 9.54967L14.4092 9.53418H15.3143Z" fill="#01013D"/>
<path d="M10.771 12.0737H4.43457V12.9207H10.771V12.0737Z" fill="#01013D"/>
<path d="M17.3995 7.72797L13.5509 8.74918L12.5297 12.5978L9.00391 4.20215L17.3995 7.72797Z" fill="#0277EE"/>
</g>
<defs>
<clipPath id="clip0_4176_5872">
<rect width="154.924" height="28" fill="white"/>
</clipPath>
</defs>
</svg>
